<svg id="katman_1" data-name="katman 1" xmlns="http://www.w3.org/2000/svg" viewBox="0 0 590.33 166.35">

    <path class="cls-1" d="M213.12,91A14.16,14.16,0,0,0,199,105.19V204.4a14.17,14.17,0,1,0,28.34,0V105.19A14.16,14.16,0,0,0,213.12,91Z" transform="translate(-56.59 -52.73)"/><path class="cls-1" d="M213.12,53.23A14.16,14.16,0,0,0,199,67.4h0a14.17,14.17,0,1,0,28.34,0h0A14.16,14.16,0,0,0,213.12,53.23Z" transform="translate(-56.59 -52.73)"/><path class="cls-1" d="M490.51,53.23h0A14.16,14.16,0,0,0,476.34,67.4h0a14.17,14.17,0,0,0,14.17,14.18h0A14.18,14.18,0,0,0,504.69,67.4h0A14.17,14.17,0,0,0,490.51,53.23Z" transform="translate(-56.59 -52.73)"/><rect class="cls-1" x="419.75" y="38.29" width="28.35" height="127.56" rx="14.17"/><path class="cls-1" d="M120.87,91h0A63.78,63.78,0,0,0,57.09,154.8v49.6a14.18,14.18,0,0,0,14.17,14.18h0A14.18,14.18,0,0,0,85.44,204.4V154.8a35.44,35.44,0,0,1,35.43-35.44h0A35.44,35.44,0,0,1,156.3,154.8v49.6a14.18,14.18,0,0,0,14.18,14.18h0a14.18,14.18,0,0,0,14.17-14.18V154.8A63.77,63.77,0,0,0,120.87,91Z" transform="translate(-56.59 -52.73)"/><path class="cls-1" d="M582.64,91h0a63.77,63.77,0,0,0-63.78,63.78v49.6A14.17,14.17,0,0,0,533,218.58h0A14.17,14.17,0,0,0,547.2,204.4V154.8a35.44,35.44,0,0,1,35.44-35.44h0a35.44,35.44,0,0,1,35.43,35.44v49.6a14.18,14.18,0,0,0,14.17,14.18h0a14.18,14.18,0,0,0,14.18-14.18V154.8A63.78,63.78,0,0,0,582.64,91Z" transform="translate(-56.59 -52.73)"/><path class="cls-1" d="M439.89,119.36H448a14.17,14.17,0,0,0,14.18-14.17h0A14.17,14.17,0,0,0,448,91h-8.62a55.16,55.16,0,0,0-55.16,55.16V204.4a14.18,14.18,0,0,0,14.18,14.18h0a14.18,14.18,0,0,0,14.17-14.18V146.7A27.34,27.34,0,0,1,439.89,119.36Z" transform="translate(-56.59 -52.73)"/><path class="cls-1" d="M355.16,53.3h0A14.18,14.18,0,0,0,341,67.47V154.6h0a35.22,35.22,0,1,1-26.49-34.14,14,14,0,0,0,14.72-5.37,14.19,14.19,0,0,0-8-22.17,63.59,63.59,0,1,0,48.1,61.68V67.47A14.18,14.18,0,0,0,355.16,53.3Z" transform="translate(-56.59 -52.73)"/></svg>