<?xml version="1.0" encoding="utf-8"?>
<!-- Generator: Adobe Illustrator 25.1.0, SVG Export Plug-In . SVG Version: 6.00 Build 0)  -->
<svg version="1.1" id="katman_1" xmlns="http://www.w3.org/2000/svg" xmlns:xlink="http://www.w3.org/1999/xlink" x="0px" y="0px"
	 viewBox="0 0 3702.06 1559.83" style="enable-background:new 0 0 3702.06 1559.83;" xml:space="preserve">
<style type="text/css">
	.st0{fill:#D5CDC8;}
	.st1{fill:#FFFFFF;}
	.st2{fill:#4B4E4E;}
	.st3{fill:#54AF32;}
	.st4{fill:#F9AF15;}
	.st5{opacity:0.68;fill:#D5CDC8;}
	.st6{fill:#D6101E;}
</style>
<g>
	<path class="st0" d="M3021.71,778.17l439.45-7.61c24.84-0.43,45.49,19.02,46.55,43.83l19.12,445.39
		c1.11,25.76-19.26,47.36-45.04,47.76l-437.69,6.89c-24.74,0.39-45.31-18.94-46.47-43.65l-20.87-444.68
		C2975.54,800.31,2995.89,778.61,3021.71,778.17z"/>
	<path class="st1" d="M3039.19,778.17l439.45-7.61c24.84-0.43,45.49,19.02,46.55,43.83l19.12,445.39
		c1.11,25.76-19.26,47.36-45.04,47.76l-437.69,6.89c-24.74,0.39-45.31-18.94-46.47-43.65l-20.87-444.68
		C2993.02,800.31,3013.36,778.61,3039.19,778.17z"/>
	<polygon class="st2" points="3183.98,1034.63 3190.97,1231.41 3092.06,1233.16 3078.78,857.08 3175.94,855.33 3274.51,1010.87 
		3361.19,851.84 3456.25,851.84 3473.73,1226.52 3374.47,1228.26 3368.53,1030.09 3288.14,1178.28 3276.25,1178.63 	"/>
	<path class="st0" d="M2479.66,801.14l432.55-12.02c16.21-0.51,17.65,10.85,18.29,27.06l19.81,498.26l-436.56,38.19
		c-37.71,3.3-68.52-11.84-69.57-49.68l-13.94-449.36C2429.46,825.48,2451.56,802.03,2479.66,801.14z"/>
	<path class="st1" d="M2497.86,806.51l415.11-16.82c25.17-1.02,46.32,18.72,47.05,43.9l12.8,443.05
		c0.7,24.25-17.85,44.74-42.06,46.44l-408.91,28.66c-25.42,1.78-47.3-17.78-48.36-43.24l-19-454.89
		C2453.45,828.61,2472.87,807.52,2497.86,806.51z"/>
	<path class="st3" d="M2568.94,886.54l94.72-3.15l7.34,238.37c0,0-1.39,45.46,40.89,46.87c40.54,1.36,49.98-18.91,52.08-30.45
		c2.1-11.53-5.24-260.74-5.24-260.74l91.57-2.8l8.04,257.59c0,0,1.4,125.83-139.11,134.21c-140.5,8.39-143.65-125.83-143.65-125.83
		L2568.94,886.54z"/>
	<path class="st0" d="M1878.7,825.92l-2.35,437.54c-0.12,23.26,18.64,42.23,41.9,42.35l448.97,2.37
		c21.33,0.11,38.89-16.76,39.61-38.08l14.93-436.81c0.81-23.65-18-43.34-41.67-43.6l-459.36-5.11
		C1897.69,784.32,1878.83,802.87,1878.7,825.92z"/>
	<path class="st1" d="M1878.65,855.56l-2.27,423.48c-0.13,24.96,19.99,45.29,44.94,45.43l442.93,2.34
		c22.99,0.12,41.9-18.06,42.69-41.04l14.72-430.71c0.87-25.37-19.31-46.48-44.69-46.77l-445.23-4.96
		C1902.62,803.01,1878.8,826.44,1878.65,855.56z"/>
	<polygon class="st2" points="2006.89,887.83 2291.17,890.16 2291.17,983.83 2197.03,983.83 2191.9,1253.66 2092.64,1253.66 
		2098.69,979.75 2006.89,980.11 	"/>
	<path class="st0" d="M1305.82,826.61l10.62,429c-0.26,22.42-2.8,53.25,19.57,54.7l450.65,29.09c22.22,1.44,49.4-12.59,52.19-38
		l18.7-457.04c1.25-29.54-21.8-54.45-51.35-55.48l-439.17-15.32C1342.35,772.69,1306.1,801.92,1305.82,826.61z"/>
	<path class="st1" d="M1305.67,829.58l-5.07,438.61c-0.26,22.42,17.07,41.12,39.44,42.57l440.6,28.55
		c22.22,1.44,41.28-15.68,42.22-37.93l18.84-444.43c1.25-29.54-21.8-54.45-51.35-55.48l-439.17-15.32
		C1326.5,785.28,1305.96,804.9,1305.67,829.58z"/>
	<path class="st2" d="M1700.44,954.4l-84.35,44.74c0,0-7.46-36.82-47.53-44.74c-40.08-7.92-42.21,18.56-37.75,29.36
		c8.85,21.44,26.57,18.38,91.81,46.14c65.71,27.96,96.93,75.03,77.83,146.8c0,0-23.3,84.35-146.8,74.56
		c-119.29-9.45-142.14-102.52-142.14-102.52l81.09-43.81c0,0,14.91,41.94,52.19,49.4c37.28,7.46,53.36,6.33,61.51-7.46
		c5.48-9.26,3.26-25.63-23.77-35.88c-27.03-10.25-83.88-27.96-109.98-49.86c-26.1-21.9-52.19-58.25-34.95-123.96
		c15-57.17,82.02-80.62,131.42-75.5s71.26,13.26,96.93,40.08C1687.63,924.38,1700.44,954.4,1700.44,954.4z"/>
	<path class="st0" d="M729.48,837.1l29.81,407.45c1.32,25.98,23.88,43.16,49.9,42.99l435,20.22c20.78-0.14,42.97-40.95,42.57-61.73
		l-11.89-425.11c-0.46-23.82-20.01-42.83-43.83-42.62l-442.58,2.08C754.87,781.35,729.48,819.06,729.48,837.1z"/>
	<path class="st1" d="M729.16,842.65l21.5,422.54c1.32,25.98,23.88,43.16,49.9,42.99l436.87,0.25
		c20.78-0.14,37.44-17.23,37.04-38.01l-7.96-414.78c-0.61-31.62-26.56-56.86-58.19-56.58l-441.79,3.92
		C745.06,803.17,728.07,821.21,729.16,842.65z"/>
	<path class="st4" d="M1008.11,866.4c-111.57,0-202.02,83.88-202.02,187.34c0,103.47,90.45,187.34,202.02,187.34
		s202.02-83.87,202.02-187.34C1210.13,950.28,1119.69,866.4,1008.11,866.4z M1008.46,1150.56c-55.98,0-101.36-42.41-101.36-94.72
		s45.38-94.72,101.36-94.72c55.98,0,101.36,42.41,101.36,94.72S1064.44,1150.56,1008.46,1150.56z"/>
	<path class="st5" d="M258.11,774.7h423.21c23.41,0,42.54,18.7,43.07,42.1l8.97,433.33c0.44,31.98-39.76,63.17-62.04,60.9
		l-416.13-14.07c-22.57,0.03-40.99-18.03-41.41-40.6l-26.31-434.14C185.48,795.06,234.97,774.7,258.11,774.7z"/>
	<path class="st1" d="M227.63,786.11h439.56c20.52,0,37.28,16.39,37.75,36.9l10.08,442.57c0.53,23.14-21.58,45.79-44.73,45.82
		l-434.43-3.03c-22.57,0.03-40.99-18.03-41.41-40.6l-8.18-439.53C185.84,805.11,204.48,786.11,227.63,786.11z"/>
	<path class="st2" d="M625.5,1029.76c-2.85-64.31-25.24-112-80.09-146.62c-49.28-31.11-138.71-23.59-138.71-23.59H294.86
		l7.69,367.69h166.37C468.92,1227.23,634.54,1234.05,625.5,1029.76z M460.39,1135.89h-60.8l-4.19-182.21c0,0,22.79-2.19,60.12,0
		c66.48,3.9,71.73,79.07,72.13,93.02C530.24,1137.16,460.39,1135.89,460.39,1135.89z"/>
	<path class="st0" d="M1050.52,218.58l-20.15,456.1c-1.01,22.87,16.69,42.24,39.55,43.29l410.55,19.89
		c48.47,0,64.6-22.74,65.91-46.97l17.97-456.22c1.7-31.28-37.28-44.27-68.76-49.17l-400.69-8.58
		C1071.26,176.47,1051.57,194.95,1050.52,218.58z"/>
	<path class="st1" d="M1578.58,233.91v450.7c0,27.02,21.91,48.93,48.93,48.93h455.56c24.47,0,44.35-19.77,44.47-44.25l2.33-455.79
		c0.14-26.47-21.29-48-47.76-48h-455.12C1600.25,185.51,1578.58,207.18,1578.58,233.91z"/>
	<path class="st0" d="M2204.56,192.29c-27.86-0.02-50.46,22.56-50.48,50.42l-0.28,434.74c0,33.2,25.86,62.88,53.56,62.56
		l445.12-5.95c24.63-0.29,44.39-20.43,44.2-45.06l-3.49-449.84c-0.2-25.54-20.77-46.25-46.31-46.61L2204.56,192.29z"/>
	<path class="st1" d="M1023.77,218.58l-20.15,456.1c-1.01,22.87,16.69,42.24,39.55,43.29l430.1,19.84
		c24.24,1.12,44.85-17.52,46.17-41.75l24.57-452.63c1.7-31.28-22.88-57.73-54.19-58.34l-421.66-8.17
		C1044.51,176.47,1024.81,194.95,1023.77,218.58z"/>
	<path class="st1" d="M2212.95,192.29c-27.86-0.02-50.46,22.56-50.48,50.42l-0.28,447.08c0.49,27.69,23.25,49.79,50.95,49.47
		l447.74-5.19c24.63-0.29,44.39-20.43,44.2-45.06l-3.49-449.84c-0.2-25.54-20.77-46.25-46.31-46.61L2212.95,192.29z"/>
	<polygon class="st2" points="1343.71,271.82 1272.4,408.13 1215.08,268.33 1108.13,264.83 1219.28,506 1212.99,650.7 
		1309.45,654.19 1315.05,512.29 1453.45,275.32 	"/>
	<polygon class="st2" points="2304.87,282.31 2304.87,377.38 2434.89,377.38 2304.87,588.48 2304.87,667.47 2567.71,663.28 
		2567.71,564.72 2434.57,565.92 2563.51,355.71 2561.41,282.31 	"/>
	<path class="st6" d="M1915.51,274.62h-122.33l-127.92,383.07h109.05l17.48-55.22h125.13l13.98,55.22h109.75L1915.51,274.62z
		 M1816.95,515.09l36-120.93l37.4,120.93H1816.95z"/>
</g>
</svg>
